<svg width="26" height="26" viewBox="0 0 26 26" fill="none" xmlns="http://www.w3.org/2000/svg">
<path d="M9.75 11.9167H7.58333V14.0833H9.75V11.9167ZM14.0833 11.9167H11.9167V14.0833H14.0833V11.9167ZM18.4167 11.9167H16.25V14.0833H18.4167V11.9167ZM20.5833 4.33334H19.5V2.16667H17.3333V4.33334H8.66667V2.16667H6.5V4.33334H5.41667C4.21417 4.33334 3.26083 5.30834 3.26083 6.50001L3.25 21.6667C3.25 22.2413 3.47827 22.7924 3.8846 23.1987C4.29093 23.6051 4.84203 23.8333 5.41667 23.8333H20.5833C21.775 23.8333 22.75 22.8583 22.75 21.6667V6.50001C22.75 5.30834 21.775 4.33334 20.5833 4.33334ZM20.5833 21.6667H5.41667V9.75001H20.5833V21.6667Z"/>
</svg>
