<svg width="26" height="26" viewBox="0 0 26 26" fill="none" xmlns="http://www.w3.org/2000/svg">
<path d="M13 13C11.8083 13 10.7882 12.5757 9.93956 11.7271C9.09095 10.8785 8.66665 9.85833 8.66665 8.66666C8.66665 7.47499 9.09095 6.45486 9.93956 5.60625C10.7882 4.75763 11.8083 4.33333 13 4.33333C14.1916 4.33333 15.2118 4.75763 16.0604 5.60625C16.909 6.45486 17.3333 7.47499 17.3333 8.66666C17.3333 9.85833 16.909 10.8785 16.0604 11.7271C15.2118 12.5757 14.1916 13 13 13ZM4.33331 21.6667V18.6333C4.33331 18.0194 4.49148 17.455 4.80781 16.9401C5.12415 16.4251 5.54376 16.0326 6.06665 15.7625C7.18609 15.2028 8.32359 14.7828 9.47915 14.5026C10.6347 14.2224 11.8083 14.0826 13 14.0833C14.1916 14.0833 15.3653 14.2234 16.5208 14.5037C17.6764 14.7839 18.8139 15.2035 19.9333 15.7625C20.4569 16.0333 20.8769 16.4262 21.1932 16.9412C21.5096 17.4561 21.6674 18.0202 21.6666 18.6333V21.6667H4.33331Z"/>
</svg>
