<svg width="26" height="26" viewBox="0 0 26 26" fill="none" xmlns="http://www.w3.org/2000/svg">
<path d="M13 2.16667C7.04167 2.16667 2.16667 7.04167 2.16667 13C2.16667 18.9583 7.04167 23.8333 13 23.8333C18.9583 23.8333 23.8333 18.9583 23.8333 13C23.8333 7.04167 18.9583 2.16667 13 2.16667ZM13 21.6667C8.22251 21.6667 4.33334 17.7775 4.33334 13C4.33334 8.22251 8.22251 4.33334 13 4.33334C17.7775 4.33334 21.6667 8.22251 21.6667 13C21.6667 17.7775 17.7775 21.6667 13 21.6667ZM17.9725 8.21167L10.8333 15.3508L8.0275 12.5558L6.50001 14.0833L10.8333 18.4167L19.5 9.75001L17.9725 8.21167Z"/>
</svg>
